<mxfile host="app.diagrams.net" modified="2024-07-15T09:29:07.531Z" agent="Mozilla/5.0 (Windows NT 10.0; Win64; x64) AppleWebKit/537.36 (KHTML, like Gecko) Chrome/126.0.0.0 Safari/537.36 Edg/126.0.0.0" etag="2DJUoQoIQ1WdCwPVuoOF" version="24.6.5" type="github">
  <diagram name="第 1 页" id="uTGe1zCzms4CnE7hPVY3">
    <mxGraphModel dx="1080" dy="512" grid="1" gridSize="10" guides="1" tooltips="1" connect="1" arrows="1" fold="1" page="1" pageScale="1" pageWidth="827" pageHeight="1169" math="0" shadow="0">
      <root>
        <mxCell id="0" />
        <mxCell id="1" parent="0" />
        <mxCell id="EzolCakp7-7XeYv48asI-3" style="edgeStyle=orthogonalEdgeStyle;rounded=0;orthogonalLoop=1;jettySize=auto;html=1;entryX=0.5;entryY=0;entryDx=0;entryDy=0;" edge="1" parent="1" source="EzolCakp7-7XeYv48asI-1" target="EzolCakp7-7XeYv48asI-2">
          <mxGeometry relative="1" as="geometry" />
        </mxCell>
        <mxCell id="EzolCakp7-7XeYv48asI-1" value="业务员填写单据" style="shape=manualInput;whiteSpace=wrap;html=1;size=13;" vertex="1" parent="1">
          <mxGeometry x="120" y="90" width="110" height="50" as="geometry" />
        </mxCell>
        <mxCell id="EzolCakp7-7XeYv48asI-5" style="edgeStyle=orthogonalEdgeStyle;rounded=0;orthogonalLoop=1;jettySize=auto;html=1;entryX=0.5;entryY=0;entryDx=0;entryDy=0;" edge="1" parent="1" source="EzolCakp7-7XeYv48asI-2" target="EzolCakp7-7XeYv48asI-4">
          <mxGeometry relative="1" as="geometry" />
        </mxCell>
        <mxCell id="EzolCakp7-7XeYv48asI-2" value="处理单据" style="rounded=0;whiteSpace=wrap;html=1;" vertex="1" parent="1">
          <mxGeometry x="130" y="190" width="90" height="40" as="geometry" />
        </mxCell>
        <mxCell id="EzolCakp7-7XeYv48asI-7" style="edgeStyle=orthogonalEdgeStyle;rounded=0;orthogonalLoop=1;jettySize=auto;html=1;exitX=0.5;exitY=1;exitDx=0;exitDy=0;entryX=0.207;entryY=0.068;entryDx=0;entryDy=0;entryPerimeter=0;" edge="1" parent="1" source="EzolCakp7-7XeYv48asI-4" target="EzolCakp7-7XeYv48asI-6">
          <mxGeometry relative="1" as="geometry" />
        </mxCell>
        <mxCell id="EzolCakp7-7XeYv48asI-4" value="录入信息" style="rounded=0;whiteSpace=wrap;html=1;" vertex="1" parent="1">
          <mxGeometry x="130" y="270" width="90" height="40" as="geometry" />
        </mxCell>
        <mxCell id="EzolCakp7-7XeYv48asI-14" style="edgeStyle=orthogonalEdgeStyle;rounded=0;orthogonalLoop=1;jettySize=auto;html=1;" edge="1" parent="1" source="EzolCakp7-7XeYv48asI-6" target="EzolCakp7-7XeYv48asI-9">
          <mxGeometry relative="1" as="geometry" />
        </mxCell>
        <mxCell id="EzolCakp7-7XeYv48asI-18" style="edgeStyle=orthogonalEdgeStyle;rounded=0;orthogonalLoop=1;jettySize=auto;html=1;exitX=1;exitY=0;exitDx=0;exitDy=27.5;exitPerimeter=0;entryX=0.25;entryY=1;entryDx=0;entryDy=0;" edge="1" parent="1" source="EzolCakp7-7XeYv48asI-6" target="EzolCakp7-7XeYv48asI-15">
          <mxGeometry relative="1" as="geometry" />
        </mxCell>
        <mxCell id="EzolCakp7-7XeYv48asI-22" style="edgeStyle=orthogonalEdgeStyle;rounded=0;orthogonalLoop=1;jettySize=auto;html=1;exitX=1;exitY=0.5;exitDx=0;exitDy=0;exitPerimeter=0;entryX=0;entryY=0.5;entryDx=0;entryDy=0;" edge="1" parent="1" source="EzolCakp7-7XeYv48asI-6" target="EzolCakp7-7XeYv48asI-21">
          <mxGeometry relative="1" as="geometry" />
        </mxCell>
        <mxCell id="EzolCakp7-7XeYv48asI-6" value="业务信息表格" style="shape=cylinder3;whiteSpace=wrap;html=1;boundedLbl=1;backgroundOutline=1;size=15;" vertex="1" parent="1">
          <mxGeometry x="180" y="390" width="155" height="80" as="geometry" />
        </mxCell>
        <mxCell id="EzolCakp7-7XeYv48asI-9" value="查找信息" style="rounded=0;whiteSpace=wrap;html=1;" vertex="1" parent="1">
          <mxGeometry x="280" y="230" width="110" height="40" as="geometry" />
        </mxCell>
        <mxCell id="EzolCakp7-7XeYv48asI-10" value="业务员接受查询" style="shape=manualInput;whiteSpace=wrap;html=1;size=13;" vertex="1" parent="1">
          <mxGeometry x="280" y="90" width="110" height="50" as="geometry" />
        </mxCell>
        <mxCell id="EzolCakp7-7XeYv48asI-12" value="" style="edgeStyle=elbowEdgeStyle;elbow=horizontal;endArrow=classic;html=1;startArrow=classic;html=1;curved=0;rounded=0;endSize=8;startSize=8;entryX=0.5;entryY=1;entryDx=0;entryDy=0;exitX=0.5;exitY=0;exitDx=0;exitDy=0;" edge="1" parent="1" source="EzolCakp7-7XeYv48asI-9" target="EzolCakp7-7XeYv48asI-10">
          <mxGeometry width="50" height="50" relative="1" as="geometry">
            <mxPoint x="350" y="310" as="sourcePoint" />
            <mxPoint x="460" y="200" as="targetPoint" />
          </mxGeometry>
        </mxCell>
        <mxCell id="EzolCakp7-7XeYv48asI-19" style="edgeStyle=orthogonalEdgeStyle;rounded=0;orthogonalLoop=1;jettySize=auto;html=1;exitX=0.5;exitY=0;exitDx=0;exitDy=0;entryX=0;entryY=0.5;entryDx=0;entryDy=0;" edge="1" parent="1" source="EzolCakp7-7XeYv48asI-15" target="EzolCakp7-7XeYv48asI-17">
          <mxGeometry relative="1" as="geometry" />
        </mxCell>
        <mxCell id="EzolCakp7-7XeYv48asI-20" style="edgeStyle=orthogonalEdgeStyle;rounded=0;orthogonalLoop=1;jettySize=auto;html=1;entryX=0;entryY=0.5;entryDx=0;entryDy=0;" edge="1" parent="1" source="EzolCakp7-7XeYv48asI-15" target="EzolCakp7-7XeYv48asI-16">
          <mxGeometry relative="1" as="geometry" />
        </mxCell>
        <mxCell id="EzolCakp7-7XeYv48asI-15" value="制作报表" style="rounded=0;whiteSpace=wrap;html=1;" vertex="1" parent="1">
          <mxGeometry x="450" y="230" width="110" height="40" as="geometry" />
        </mxCell>
        <mxCell id="EzolCakp7-7XeYv48asI-16" value="旅游团队管理信息的报表" style="shape=document;whiteSpace=wrap;html=1;boundedLbl=1;" vertex="1" parent="1">
          <mxGeometry x="620" y="270" width="110" height="60" as="geometry" />
        </mxCell>
        <mxCell id="EzolCakp7-7XeYv48asI-17" value="团队团员基本情况的报表" style="shape=document;whiteSpace=wrap;html=1;boundedLbl=1;" vertex="1" parent="1">
          <mxGeometry x="615" y="160" width="120" height="60" as="geometry" />
        </mxCell>
        <mxCell id="EzolCakp7-7XeYv48asI-25" value="" style="edgeStyle=orthogonalEdgeStyle;rounded=0;orthogonalLoop=1;jettySize=auto;html=1;" edge="1" parent="1" source="EzolCakp7-7XeYv48asI-21" target="EzolCakp7-7XeYv48asI-24">
          <mxGeometry relative="1" as="geometry" />
        </mxCell>
        <mxCell id="EzolCakp7-7XeYv48asI-21" value="统计信息" style="rounded=0;whiteSpace=wrap;html=1;" vertex="1" parent="1">
          <mxGeometry x="490" y="430" width="110" height="40" as="geometry" />
        </mxCell>
        <mxCell id="EzolCakp7-7XeYv48asI-24" value="排行榜" style="shape=document;whiteSpace=wrap;html=1;boundedLbl=1;" vertex="1" parent="1">
          <mxGeometry x="640" y="420" width="110" height="60" as="geometry" />
        </mxCell>
      </root>
    </mxGraphModel>
  </diagram>
</mxfile>
